<svg width="400" height="300" xmlns="http://www.w3.org/2000/svg" xmlns:xlink="http://www.w3.org/1999/xlink" version="1.1" baseProfile="full" viewBox="0 0 400 300">
<rect width="400" height="300" x="0" y="0" id="0" fill="#fff"></rect>
<path d="M200 15.1A5 5 0 0 1 205.2 10.1A140 140 0 0 1 336.9 120.6A5 5 0 0 1 332.9 126.6L224.1 145.7A5 5 0 0 1 218.6 142.7A20 20 0 0 0 204 130.4A5 5 0 0 1 200 125.5Z" fill="#5470c6" transform-origin="200px 150px" class="zr3-cls-0"></path>
<path d="M312.2 130.2A5 5 0 0 1 318 134.5A119 119 0 0 1 270.8 245.6A5 5 0 0 1 263.7 244.4L213.7 170.3A5 5 0 0 1 214.3 164A20 20 0 0 0 220 150.5A5 5 0 0 1 224.1 145.7Z" fill="#91cc75" transform-origin="200px 150px" class="zr3-cls-1"></path>
<path d="M255.3 232A5 5 0 0 1 253.7 239A104 104 0 0 1 166 248.3A5 5 0 0 1 163 241.7L190.8 172.7A5 5 0 0 1 196.4 169.7A20 20 0 0 0 207.6 168.5A5 5 0 0 1 213.7 170.3Z" fill="#fac858" transform-origin="200px 150px" class="zr3-cls-2"></path>
<path d="M169.7 225A5 5 0 0 1 162.9 227.6A86 86 0 0 1 123.7 189.8A5 5 0 0 1 126.1 182.9L177.6 160A5 5 0 0 1 183.7 161.6A20 20 0 0 0 189 166.7A5 5 0 0 1 190.8 172.7Z" fill="#ee6666" transform-origin="200px 150px" class="zr3-cls-3"></path>
<path d="M131.6 180.4A5 5 0 0 1 124.9 177.6A80 80 0 0 1 121.8 133.1A5 5 0 0 1 128.1 129.4L176.5 143.2A5 5 0 0 1 180.1 148.4A20 20 0 0 0 180.5 154.3A5 5 0 0 1 177.6 160Z" fill="#73c0de" transform-origin="200px 150px" class="zr3-cls-4"></path>
<path d="M142.5 133.5A5 5 0 0 1 139.2 126.9A65 65 0 0 1 151.1 107.2A5 5 0 0 1 158.5 107L183 132.4A5 5 0 0 1 183.5 138.7A20 20 0 0 0 182.3 140.8A5 5 0 0 1 176.5 143.2Z" fill="#3ba272" transform-origin="200px 150px" class="zr3-cls-5"></path>
<path d="M164.7 113.5A5 5 0 0 1 165.2 106.1A56 56 0 0 1 175.8 99.5A5 5 0 0 1 182.6 102.3L191.6 127A5 5 0 0 1 189.5 133A20 20 0 0 0 189.3 133.1A5 5 0 0 1 183 132.4Z" fill="#fc8452" transform-origin="200px 150px" class="zr3-cls-6"></path>
<path d="M184.7 108A5 5 0 0 1 188.2 101.4A50 50 0 0 1 194.4 100.3A5 5 0 0 1 200 105.3L200 126.2A4.2 4.2 0 0 1 191.8 127.6Z" fill="#9a60b4" transform-origin="200px 150px" class="zr3-cls-7"></path>
<style >&lt;![CDATA[
.zr3-cls-0 {
animation:zr3-ani-0 1s cubic-bezier(0.65,0,0.35,1) both;
}
.zr3-cls-1 {
animation:zr3-ani-1 1s cubic-bezier(0.65,0,0.35,1) both;
}
.zr3-cls-2 {
animation:zr3-ani-2 1s cubic-bezier(0.65,0,0.35,1) both;
}
.zr3-cls-3 {
animation:zr3-ani-3 1s cubic-bezier(0.65,0,0.35,1) both;
}
.zr3-cls-4 {
animation:zr3-ani-4 1s cubic-bezier(0.65,0,0.35,1) both;
}
.zr3-cls-5 {
animation:zr3-ani-5 1s cubic-bezier(0.65,0,0.35,1) both;
}
.zr3-cls-6 {
animation:zr3-ani-6 1s cubic-bezier(0.65,0,0.35,1) both;
}
.zr3-cls-7 {
animation:zr3-ani-7 1s cubic-bezier(0.65,0,0.35,1) both;
}
@keyframes zr3-ani-0 {
0% {
transform:scale(0,0);
}
100% {

}
}
@keyframes zr3-ani-1 {
0% {
transform:scale(0,0);
}
100% {

}
}
@keyframes zr3-ani-2 {
0% {
transform:scale(0,0);
}
100% {

}
}
@keyframes zr3-ani-3 {
0% {
transform:scale(0,0);
}
100% {

}
}
@keyframes zr3-ani-4 {
0% {
transform:scale(0,0);
}
100% {

}
}
@keyframes zr3-ani-5 {
0% {
transform:scale(0,0);
}
100% {

}
}
@keyframes zr3-ani-6 {
0% {
transform:scale(0,0);
}
100% {

}
}
@keyframes zr3-ani-7 {
0% {
transform:scale(0,0);
}
100% {

}
}
]]&gt;

</style>
</svg>